<svg xmlns="http://www.w3.org/2000/svg" viewBox="0 0 368 368">
    <path xmlns="http://www.w3.org/2000/svg" id="shape0" transform="matrix(1.07336953114965 0 0 1.10628751547374 38.2921330976115 99.8038379262693)" fill="#000000" fill-rule="evenodd" stroke="#000000" stroke-width="28.8" stroke-linecap="round" stroke-linejoin="round" d="M136.84 219.979C152.721 219.522 184.008 216.494 201.675 212.122C217.499 207.723 235.955 199.852 249.17 189.208C261.884 174.67 272.659 161.895 273.637 140.105C274.101 115.664 270.935 91.876 259.244 67.4339L259.244 2.58439e-14L187.282 31.7529C172.041 26.8287 157.522 24.5349 136.84 25.2059C116.158 24.5349 101.64 26.8287 86.398 31.7529L14.4357 0L14.4357 67.4339C2.74431 91.876 -0.420249 115.664 0.0432014 140.105C1.02044 161.895 11.796 174.67 24.5104 189.208C37.7257 199.852 56.181 207.723 72.0056 212.122C89.6723 216.494 120.959 219.522 136.84 219.979Z" xmlns:sodipodi="http://sodipodi.sourceforge.net/DTD/sodipodi-0.dtd" sodipodi:nodetypes="ccccccccccccccc"/>
</svg>
