<svg xmlns="http://www.w3.org/2000/svg" viewBox="0 0 368 368">
    <path id="shape0" transform="matrix(1.07336953114965 0 0 1.10628751547374 38.2921330976115 99.8038379262693)" fill="#000000" fill-rule="evenodd" stroke="#000000" stroke-width="28.8" stroke-linecap="round" stroke-linejoin="round" d="M136.84 219.979C152.721 219.522 184.008 216.494 201.675 212.122C217.499 207.723 235.955 199.852 249.17 189.208C261.884 174.67 272.659 161.895 273.637 140.105C274.101 115.664 270.935 91.876 259.244 67.4339L259.244 2.58439e-14L187.282 31.7529C172.041 26.8287 157.522 24.5349 136.84 25.2059C116.158 24.5349 101.64 26.8287 86.398 31.7529L14.4357 0L14.4357 67.4339C2.74431 91.876 -0.420249 115.664 0.0432014 140.105C1.02044 161.895 11.796 174.67 24.5104 189.208C37.7257 199.852 56.181 207.723 72.0056 212.122C89.6723 216.494 120.959 219.522 136.84 219.979Z" sodipodi:nodetypes="ccccccccccccccc"/><path id="shape1" transform="matrix(1.07336953114965 0 0 1.10628751547374 301.88114263288 223.871204447111)" fill="none" stroke="#000000" stroke-width="28.8" stroke-linecap="round" stroke-linejoin="miter" stroke-miterlimit="2.16000008583069" d="M0 12.7876L47.7239 0" sodipodi:nodetypes="cc"/><path id="shape2" transform="matrix(1.07336953114965 0 0 1.10628751547374 301.108316570453 270.675561865566)" fill="#000000" stroke="#000000" stroke-width="28.8" stroke-linecap="round" stroke-linejoin="miter" stroke-miterlimit="2.16000008583069" d="M0 0L48.4937 12.9938" sodipodi:nodetypes="cc"/><path id="shape3" transform="matrix(1.07336953114965 0 0 1.10628751547374 15.4800233968355 223.80586831928)" fill="none" stroke="#000000" stroke-width="28.8" stroke-linecap="round" stroke-linejoin="miter" stroke-miterlimit="2.16000008583069" d="M47.9443 12.8466L0 0" sodipodi:nodetypes="cc"/><path id="shape4" transform="matrix(1.07336953114965 0 0 1.10628751547374 15.9354995346133 272.798229624128)" fill="none" stroke="#000000" stroke-width="28.8" stroke-linecap="round" stroke-linejoin="miter" stroke-miterlimit="2.16000008583069" d="M0 13.2013L49.2678 0" sodipodi:nodetypes="cc"/><path id="shape5" transform="matrix(1.15855368821652 0.428508879431014 -0.415758443058419 1.19408409134477 178.773006408938 5.48002339683553)" fill="#000000" fill-rule="evenodd" stroke="#000000" stroke-width="18" stroke-linecap="round" stroke-linejoin="round" d="M28.4537 0L37.1037 16.5827L56.9075 19.1016L42.7944 32.1158L45.9812 50.3778L28.4537 41.9815L10.9262 50.3778L14.1131 32.1158L0 19.1016L19.8038 16.5827Z" sodipodi:nodetypes="ccccccccccc"/><path id="shape6" transform="matrix(1.23089468739387 0 0 1.26864363670571 184.382948479383 81.4617698024838)" fill="none" stroke="#000000" stroke-width="14.4" stroke-linecap="square" stroke-linejoin="bevel" d="M5.07418 0C2.21219 5.382 -0.32581 15.57 0.0341829 22.32" sodipodi:nodetypes="cc"/><rect id="shape7" fill="none" stroke="none" stroke-width="7.2" stroke-linecap="square" stroke-linejoin="bevel" width="368.64" height="368.64"/>
</svg>
