<svg xmlns="http://www.w3.org/2000/svg" viewBox="0 0 512 512">
    <path d="M136.912 219.972C152.801 219.515 184.104 216.487 201.78 212.115C217.613 207.716 236.078 199.846 249.3 189.202C262.021 174.664 272.802 161.89 273.78 140.101C274.244 115.66 271.077 91.8731 259.38 67.4318L259.38 2.58431e-14L187.38 31.7519C172.131 26.8278 157.604 24.5341 136.912 25.2051C116.219 24.5341 101.693 26.8278 86.4432 31.7519L14.4432 0L14.4432 67.4318C2.74574 91.8731 -0.420469 115.66 0.043224 140.101C1.02097 161.89 11.8022 174.664 24.5232 189.202C37.7454 199.846 56.2104 207.716 72.0432 212.115C89.7192 216.487 121.022 219.515 136.912 219.972Z"/>
</svg>
